<?xml version="1.0" encoding="UTF-8" standalone="no"?>
<svg
   width="0.83em"
   height="1em"
   viewBox="0 0 256 310"
   version="1.1"
   id="svg1"
   sodipodi:docname="pytorch.svg"
   inkscape:version="1.3 (0e150ed6c4, 2023-07-21)"
   xmlns:inkscape="http://www.inkscape.org/namespaces/inkscape"
   xmlns:sodipodi="http://sodipodi.sourceforge.net/DTD/sodipodi-0.dtd"
   xmlns="http://www.w3.org/2000/svg"
   xmlns:svg="http://www.w3.org/2000/svg">
  <defs
     id="defs1" />
  <sodipodi:namedview
     id="namedview1"
     pagecolor="#ffffff"
     bordercolor="#000000"
     borderopacity="0.25"
     inkscape:showpageshadow="2"
     inkscape:pageopacity="0.0"
     inkscape:pagecheckerboard="0"
     inkscape:deskcolor="#d1d1d1"
     inkscape:zoom="2.5709677"
     inkscape:cx="128.55082"
     inkscape:cy="155"
     inkscape:window-width="1920"
     inkscape:window-height="1001"
     inkscape:window-x="0"
     inkscape:window-y="0"
     inkscape:window-maximized="1"
     inkscape:current-layer="svg1" />
  <path
     fill="#EE4C2C"
     d="M127.825 0v45.053l-69.224 69.222c-36.229 36.744-36.225 95.853.012 133.264l1.109 1.127c37.02 37.719 97.79 37.719 135.509 0c37.341-36.65 37.715-96.577 1.12-134.37l-1.12-1.14l23.05-23.05c50.292 50.292 50.292 130.969 0 181.61c-49.244 50.292-130.27 50.292-180.562 0c-49.79-49.789-50.287-129.7-1.494-180.092l1.494-1.518L127.825 0Zm45.403 50.99c9.258 0 16.764 7.506 16.764 16.764c0 9.259-7.506 16.764-16.764 16.764c-9.259 0-16.764-7.505-16.764-16.764c0-9.258 7.505-16.764 16.764-16.764Z"
     id="path1"
     style="fill:#ffffff" />
</svg>
