<?xml version="1.0" encoding="UTF-8" standalone="no"?>
<!-- Created with Inkscape (http://www.inkscape.org/) -->

<svg
   version="1.1"
   id="svg55"
   width="483.73639"
   height="480.85001"
   viewBox="0 0 483.73639 480.85001"
   sodipodi:docname="hamster_nord_borderless.svg"
   inkscape:version="1.2.2 (b0a8486541, 2022-12-01)"
   xmlns:inkscape="http://www.inkscape.org/namespaces/inkscape"
   xmlns:sodipodi="http://sodipodi.sourceforge.net/DTD/sodipodi-0.dtd"
   xmlns="http://www.w3.org/2000/svg"
   xmlns:svg="http://www.w3.org/2000/svg">
  <defs
     id="defs59">
    <linearGradient
       id="linearGradient3528"
       inkscape:swatch="solid">
      <stop
         style="stop-color:#000000;stop-opacity:1;"
         offset="0"
         id="stop3526" />
    </linearGradient>
  </defs>
  <sodipodi:namedview
     id="namedview57"
     pagecolor="#ffffff"
     bordercolor="#000000"
     borderopacity="0.25"
     inkscape:showpageshadow="2"
     inkscape:pageopacity="0.0"
     inkscape:pagecheckerboard="0"
     inkscape:deskcolor="#d1d1d1"
     showgrid="false"
     inkscape:zoom="0.7203125"
     inkscape:cx="512.27766"
     inkscape:cy="397.04989"
     inkscape:window-width="1920"
     inkscape:window-height="1001"
     inkscape:window-x="0"
     inkscape:window-y="0"
     inkscape:window-maximized="1"
     inkscape:current-layer="layer7" />
  <g
     inkscape:groupmode="layer"
     id="layer3"
     inkscape:label="Layer 2"
     style="display:inline"
     transform="translate(-734.4426,-394.17806)">
    <path
       style="display:inline;opacity:1;fill:#000000;fill-opacity:1;fill-rule:nonzero;stroke:#000000;stroke-width:2;stroke-linecap:butt;stroke-linejoin:bevel;stroke-dasharray:none;stroke-opacity:1"
       d="m 1136.135,800.15197 c 10.4859,-16.60269 10.4859,-16.60269 10.4859,-16.60269"
       id="path17674" />
  </g>
  <g
     inkscape:groupmode="layer"
     id="layer6"
     inkscape:label="Layer 3"
     style="display:inline;opacity:1;stroke:#000000;stroke-width:10;stroke-dasharray:none;stroke-opacity:1"
     transform="translate(-734.4426,-394.17806)">
    <path
       style="opacity:1;fill:none;fill-opacity:1;fill-rule:nonzero;stroke:#2e3440;stroke-width:10;stroke-linecap:butt;stroke-linejoin:bevel;stroke-dasharray:none;stroke-opacity:1"
       d="M 1149.4278,772.73486 C 1024.7803,734.28838 991.19018,467.59117 991.19018,467.59117"
       id="path18522" />
    <path
       style="opacity:1;fill:none;fill-opacity:1;fill-rule:nonzero;stroke:#2e3440;stroke-width:10.1263;stroke-linecap:butt;stroke-linejoin:bevel;stroke-dasharray:none;stroke-opacity:1"
       d="m 992.75896,480.03394 c 0,0 20.33714,254.34827 -145.61484,298.11599 67.92649,9.49678 94.36492,-2.47743 94.36492,-2.47743 14.64285,-0.82576 21.96422,15.69034 21.96422,15.69034 12.78791,38.27893 -7.75356,61.91281 -7.75356,61.91281"
       id="path18525" />
    <rect
       style="opacity:1;fill:#2e3440;fill-opacity:1;fill-rule:nonzero;stroke:none;stroke-width:10;stroke-linecap:butt;stroke-linejoin:bevel;stroke-dasharray:none;stroke-opacity:1"
       id="rect18529"
       width="70.105576"
       height="26.600569"
       x="1084.9423"
       y="639.5116" />
    <rect
       style="opacity:1;fill:#2e3440;fill-opacity:1;fill-rule:nonzero;stroke:none;stroke-width:10.4658;stroke-linecap:butt;stroke-linejoin:bevel;stroke-dasharray:none;stroke-opacity:1"
       id="rect18531"
       width="71.548607"
       height="27.685001"
       x="876.51196"
       y="639.63916" />
    <path
       style="opacity:1;fill:#4c566a;fill-opacity:1;fill-rule:nonzero;stroke:#2e3440;stroke-width:4;stroke-linecap:butt;stroke-linejoin:bevel;stroke-dasharray:none;stroke-opacity:1"
       d="m 942.87106,780.83557 c -13.62,2.71144 -27.33275,5.37651 -41.27614,5.30713 -14.34638,0.63521 -28.65153,-1.23054 -42.96917,-1.21372 -2.33803,2.79948 3.3226,5.75863 4.43162,8.17328 17.78514,21.12562 41.12994,37.04206 66.86455,46.87793 7.4549,2.54701 14.76213,6.9583 22.56033,7.86896 5.87977,-4.64778 7.3868,-13.00331 9.28845,-19.90849 2.28329,-12.89768 1.62634,-27.31427 -5.25688,-38.75207 -3.29644,-4.25609 -7.70095,-9.03418 -13.64276,-8.35302 z"
       id="path21614" />
    <path
       style="display:inline;opacity:1;fill:#ebcb8b;fill-opacity:1;fill-rule:nonzero;stroke:#2e3440;stroke-width:3;stroke-linecap:butt;stroke-linejoin:bevel;stroke-dasharray:none;stroke-opacity:1"
       d="m 997.82089,534.9587 c -2.15323,16.84803 -2.96684,34.22947 -6.00677,51.13085 -8.51864,51.12703 -24.44173,103.16171 -58.93499,143.00831 -16.88529,19.45708 -37.63934,35.6213 -61.39916,45.79474 1.20114,4.16564 11.49593,0.81293 16.27119,1.8831 17.0818,0.18053 34.38859,4.7e-4 50.89894,-4.88261 15.36644,-3.01117 29.00198,10.80406 31.1685,25.15354 3.292,17.53896 2.9014,36.55386 -5.69584,52.58831 -1.2458,4.47327 6.2313,3.32178 8.61006,4.90706 37.29138,9.75278 75.99628,14.51274 114.52458,13.85149 6.4914,-0.95645 8.9032,-8.61656 13.0552,-12.81698 17.3759,-23.80255 32.4668,-49.22186 46.4866,-75.09075 1.4157,-4.27049 -5.4279,-5.04668 -7.9113,-6.83798 -39.5903,-16.41662 -66.7235,-52.45493 -86.6207,-88.99558 -24.8995,-46.73016 -40.9582,-97.64486 -52.98328,-149.04605 l -0.57014,-0.68997 z"
       id="path22815" />
    <path
       style="opacity:1;fill:#4c566a;fill-opacity:1;fill-rule:nonzero;stroke:#2e3440;stroke-width:3;stroke-linecap:butt;stroke-linejoin:bevel;stroke-dasharray:none;stroke-opacity:1"
       d="m 976.31214,471.47032 c -54.58283,3.1329 -105.78456,35.49223 -133.63873,82.29259 -21.21438,33.61077 -30.74813,73.87293 -28.62507,113.4421 0.38302,22.35384 7.10538,44.05238 14.02954,65.11462 5.70701,13.38877 11.02828,27.31937 19.43305,39.25456 5.26671,2.16646 10.74417,-2.77424 15.86727,-3.7146 38.83677,-14.74671 69.37924,-46.23012 87.97645,-82.853 22.78071,-44.44349 32.88631,-94.4124 36.24122,-143.93051 0.64609,-22.20447 1.95689,-44.54853 0.13451,-66.70675 -0.20087,-6.41003 -7.56295,-2.15197 -11.41824,-2.89901 z m -63.96575,168.76507 c 11.70621,0 23.41243,0 35.11864,0 0,8.89932 0,17.79864 0,26.69796 -23.41243,0 -46.82486,0 -70.23728,0 0,-8.89932 0,-17.79864 0,-26.69796 11.70621,0 23.41242,0 35.11864,0 z"
       id="path23101" />
    <path
       style="display:inline;opacity:1;fill:#4c566a;fill-opacity:1;fill-rule:nonzero;stroke:#2e3440;stroke-width:3;stroke-linecap:butt;stroke-linejoin:bevel;stroke-dasharray:none;stroke-opacity:1"
       d="m 1001.5683,472.0076 c -3.35691,-0.56972 -5.8592,2.48639 -4.39486,5.71492 10.62866,61.68587 25.86516,123.15682 52.03346,180.24322 17.9194,37.76718 40.8381,75.67856 76.6518,98.89886 7.7712,4.36989 15.8262,9.75499 24.8465,10.63358 4.6371,-5.25501 5.2371,-13.21056 7.6267,-19.6729 5.5008,-18.38186 8.0044,-37.4836 7.5916,-56.65882 0.8864,-22.67088 -0.4715,-45.50577 -6.4284,-67.48257 -14.2903,-58.11412 -52.2134,-112.27641 -107.3958,-137.78914 -15.9151,-7.19811 -33.0497,-12.61025 -50.531,-13.88715 z m 118.0846,168.22779 c 11.5413,0 23.0825,0 34.6238,0 0,8.56947 0,17.13896 0,25.70843 -23.0825,0 -46.1651,0 -69.2477,0 0,-8.56947 0,-17.13896 0,-25.70843 11.5413,0 23.0826,0 34.6239,0 z"
       id="path23103" />
  </g>
  <g
     inkscape:groupmode="layer"
     id="layer7"
     inkscape:label="Layer 4"
     style="display:inline"
     transform="translate(-734.4426,-394.17806)">
    <path
       style="opacity:1;fill:none;fill-opacity:1;fill-rule:nonzero;stroke:#2e3440;stroke-width:10;stroke-linecap:butt;stroke-linejoin:bevel;stroke-dasharray:none;stroke-opacity:1"
       d="m 1036.1119,836.27279 c 0,0 0,0 -55.84863,15.37857 C 947.31746,728.69592 949.1014,728.21791 949.1014,728.21791 v 0 l 50.9921,-15.7833 16.1881,55.03918 z"
       id="path18527" />
    <path
       style="opacity:1;fill:#81a1c1;fill-opacity:1;fill-rule:nonzero;stroke:#2e3440;stroke-width:8.58498;stroke-linecap:butt;stroke-linejoin:bevel;stroke-dasharray:none;stroke-opacity:1"
       d="m 874.03404,420.29431 c 10.65436,45.08133 71.05367,263.13849 83.87834,304.70458 3.53702,-0.83065 29.55886,-8.79624 32.58531,-9.93634 -13.84128,-47.07088 -77.18632,-274.54902 -87.55705,-317.53982 -28.29342,22.75941 0.017,0.1055 -28.9066,22.77158 z"
       id="path20346"
       sodipodi:nodetypes="ccccc" />
    <path
       style="opacity:1;fill:#606060;fill-opacity:1;fill-rule:nonzero;stroke:#2e3440;stroke-width:2;stroke-linecap:butt;stroke-linejoin:bevel;stroke-dasharray:none;stroke-opacity:1"
       d="m 996.06513,718.89069 c -13.8066,3.68869 -27.52438,7.78985 -41.11554,12.21019 -1.54977,3.39805 1.59291,7.63865 1.71781,11.28453 8.62324,34.10166 16.84574,68.37342 26.52533,102.1661 2.89679,2.88536 7.27107,-1.31864 10.60524,-1.26803 11.69113,-3.44861 23.77333,-6.12442 35.23783,-10.03383 0.01,-7.80606 -3.5951,-15.48654 -5.2171,-23.14261 -8.7422,-30.26579 -17.1914,-60.63921 -26.6912,-90.67277 -0.42815,0.0762 -0.60527,-0.70974 -1.06237,-0.54358 z"
       id="path20900" />
  </g>
  <g
     inkscape:groupmode="layer"
     id="layer8"
     inkscape:label="Layer 5"
     style="display:inline"
     transform="translate(-734.4426,-394.17806)">
    <path
       style="display:inline;opacity:1;fill:none;fill-opacity:1;fill-rule:nonzero;stroke:#2e3440;stroke-width:10.459;stroke-linecap:butt;stroke-linejoin:bevel;stroke-dasharray:none;stroke-opacity:1"
       d="m 1084.6572,873.3686 c -6.213,-18.57096 -71.4496,-59.34632 -71.4496,-59.34632 -36.39059,-46.02371 22.6331,-49.25342 22.6331,-49.25342 85.2069,10.49661 119.3785,9.28548 119.3785,9.28548"
       id="path18520" />
    <path
       style="opacity:1;fill:none;fill-opacity:1;fill-rule:nonzero;stroke:#2e3440;stroke-width:10.4639;stroke-linecap:butt;stroke-linejoin:bevel;stroke-dasharray:none;stroke-opacity:1"
       d="m 1206.295,673.9995 -84.6803,31.52296 94.5157,40.21895"
       id="path19991" />
    <path
       style="opacity:1;fill:none;fill-opacity:1;fill-rule:nonzero;stroke:#2e3440;stroke-width:10;stroke-linecap:butt;stroke-linejoin:bevel;stroke-dasharray:none;stroke-opacity:1"
       d="m 740.35303,687.60993 c 169.79253,25.75259 169.79253,25.75259 169.79253,25.75259 l -174.2665,52.26904"
       id="path19993" />
    <path
       style="opacity:1;fill:#4c566a;fill-opacity:1;fill-rule:nonzero;stroke:#2e3440;stroke-width:2;stroke-linecap:butt;stroke-linejoin:bevel;stroke-dasharray:none;stroke-opacity:1"
       d="m 1034.1185,770.25224 c -10.4218,0.44616 -23.3294,4.15074 -27.5097,14.74631 -1.7142,8.20305 3.7297,15.90286 7.7848,22.58525 15.0654,12.45629 32.28,22.12426 47.2152,34.81134 9.61,7.62803 18.9645,15.74469 26.3965,25.45527 3.701,1.31137 5.2509,-4.66929 7.6654,-6.51896 18.1544,-22.6744 32.5888,-47.90797 47.0393,-73.0044 4.7591,-5.31871 6.2458,-11.36003 -3.0789,-9.51485 -33.7723,-1.72985 -67.3444,-5.54734 -101.003,-8.49322 -1.502,-0.071 -3.0062,-0.0918 -4.5096,-0.0667 z"
       id="path21628" />
  </g>
</svg>
